<svg width="25" height="24" viewBox="0 0 25 24" fill="none" xmlns="http://www.w3.org/2000/svg">
<path fill-rule="evenodd" clip-rule="evenodd" d="M18.1516 1.5C18.4957 1.5 18.7956 1.73414 18.8792 2.06793L19.1382 3.10293C19.2535 3.56457 19.4923 3.98639 19.8288 4.32286C20.1652 4.65933 20.5868 4.89801 21.0485 5.01338L22.0837 5.27243C22.4175 5.35596 22.6516 5.65591 22.6516 6C22.6516 6.34409 22.4175 6.64404 22.0837 6.72757L21.0487 6.98657C20.587 7.10194 20.1652 7.34067 19.8288 7.67714C19.4923 8.01361 19.2536 8.4352 19.1382 8.89684L18.8792 9.93207C18.7956 10.2659 18.4957 10.5 18.1516 10.5C17.8075 10.5 17.5076 10.2659 17.424 9.93207L17.165 8.89707C17.0497 8.43552 16.8111 8.01371 16.4748 7.67725C16.1385 7.34084 15.7171 7.10212 15.2557 6.98661C15.2557 6.98659 15.2558 6.98662 15.2557 6.98661L14.2197 6.72761C13.8858 6.64414 13.6516 6.34415 13.6516 6C13.6516 5.65585 13.8858 5.35586 14.2197 5.27239L15.2555 5.01344C15.2555 5.01345 15.2556 5.01342 15.2555 5.01344C15.717 4.89793 16.1385 4.65916 16.4748 4.32275C16.8111 3.98629 17.0497 3.56476 17.165 3.10322L17.424 2.06793C17.5076 1.73414 17.8075 1.5 18.1516 1.5ZM16.7474 6C17.0329 6.17207 17.2978 6.37889 17.5357 6.61681C17.7733 6.8545 17.9798 7.11921 18.1517 7.4045C18.3236 7.11907 18.5303 6.85425 18.7681 6.61648C19.0059 6.37869 19.2707 6.17198 19.5562 6C19.2707 5.82802 19.0059 5.62131 18.7681 5.38352C18.5303 5.14575 18.3236 4.88093 18.1517 4.5955C17.9798 4.88079 17.7733 5.1455 17.5357 5.38319C17.2978 5.62111 17.0329 5.82793 16.7474 6ZM9.1517 4.5C9.48654 4.50004 9.78079 4.72203 9.87276 5.04399L10.6857 7.88988C10.6857 7.88984 10.6857 7.88992 10.6857 7.88988C10.8608 8.50245 11.1892 9.06042 11.6397 9.51093C12.0902 9.96146 12.6481 10.2898 13.2607 10.4649L16.1078 11.2789C16.4297 11.3709 16.6517 11.6652 16.6516 12.0001C16.6516 12.3349 16.4296 12.6292 16.1076 12.7212L13.2617 13.5341C13.2617 13.5341 13.2618 13.5341 13.2617 13.5341C12.6492 13.7092 12.0912 14.0376 11.6407 14.4881C11.1901 14.9386 10.8618 15.4965 10.6867 16.1091C10.6838 16.1194 10.6806 16.1296 10.6773 16.1397L9.87276 18.956C9.78078 19.278 9.48648 19.5 9.15161 19.5C8.81674 19.5 8.52244 19.278 8.43046 18.956L7.61749 16.1101C7.44239 15.4975 7.11407 14.9396 6.66354 14.4891C6.21301 14.0385 5.65511 13.7102 5.04249 13.5351L2.19544 12.7211C1.8735 12.6291 1.65157 12.3348 1.65161 11.9999C1.65165 11.6651 1.87364 11.3708 2.1956 11.2788L5.04149 10.4659C5.04145 10.4659 5.04153 10.4659 5.04149 10.4659C5.65406 10.2908 6.21203 9.96243 6.66254 9.51193C7.11307 9.06139 7.44138 8.5035 7.61649 7.89088L8.43051 5.04383C8.52255 4.72188 8.81686 4.49996 9.1517 4.5ZM9.15129 7.97938L9.05873 8.30312C8.81358 9.16078 8.35395 9.94184 7.7232 10.5726C7.09245 11.2033 6.3114 11.663 5.45373 11.9081L5.13099 12.0003L5.45473 12.0929C5.45471 12.0929 5.45475 12.0929 5.45473 12.0929C6.31237 12.338 7.09347 12.7977 7.7242 13.4284C8.35495 14.0592 8.81458 14.8402 9.05973 15.6979L9.15161 16.0195L9.24346 15.698C9.24663 15.6869 9.25005 15.6759 9.25372 15.665C9.50108 14.8198 9.95711 14.0503 10.58 13.4274C11.2108 12.7967 11.9918 12.337 12.8495 12.0919L13.1722 11.9997L12.8485 11.9071C12.8485 11.9071 12.8485 11.9071 12.8485 11.9071C11.9908 11.662 11.2098 11.2023 10.579 10.5716C9.94827 9.94084 9.48864 9.15978 9.24349 8.30212L9.15129 7.97938ZM16.6516 15C16.9745 15 17.2612 15.2067 17.3632 15.513L17.7571 16.6958C17.8308 16.9167 17.9548 17.1175 18.1195 17.2821C18.2841 17.4468 18.4849 17.5709 18.7058 17.6445L19.8886 18.0384C20.195 18.1405 20.4016 18.4271 20.4016 18.75C20.4016 19.0729 20.195 19.3595 19.8886 19.4616L18.7058 19.8555C18.7057 19.8555 18.7059 19.8555 18.7058 19.8555C18.4849 19.9292 18.2841 20.0533 18.1195 20.2179C17.9548 20.3825 17.8308 20.5833 17.7571 20.8042L17.3632 21.987C17.2612 22.2933 16.9745 22.5 16.6516 22.5C16.3287 22.5 16.0421 22.2933 15.94 21.987L15.5461 20.8042C15.4725 20.5833 15.3484 20.3825 15.1837 20.2179C15.0191 20.0533 14.8185 19.9292 14.5976 19.8556C14.5976 19.8556 14.5977 19.8556 14.5976 19.8556L13.4146 19.4616C13.1083 19.3595 12.9016 19.0729 12.9016 18.75C12.9016 18.4271 13.1083 18.1405 13.4146 18.0384L14.5974 17.6445C14.8183 17.5709 15.0191 17.4468 15.1837 17.2821C15.3484 17.1175 15.4725 16.9167 15.5461 16.6958L15.94 15.513C16.0421 15.2067 16.3287 15 16.6516 15ZM16.6516 17.8359C16.535 18.0185 16.3986 18.1886 16.2444 18.3428C16.0902 18.497 15.9201 18.6334 15.7376 18.75C15.9201 18.8666 16.0902 19.003 16.2444 19.1572C16.3986 19.3114 16.535 19.4815 16.6516 19.6641C16.7682 19.4815 16.9046 19.3114 17.0588 19.1572C17.213 19.003 17.3831 18.8666 17.5657 18.75C17.3831 18.6334 17.213 18.497 17.0588 18.3428C16.9046 18.1886 16.7682 18.0185 16.6516 17.8359Z" fill="#079D49"/>
</svg>
